<?xml version="1.0" standalone="no"?>
<!DOCTYPE svg PUBLIC "-//W3C//DTD SVG 20010904//EN"
 "http://www.w3.org/TR/2001/REC-SVG-20010904/DTD/svg10.dtd">
<svg version="1.0" xmlns="http://www.w3.org/2000/svg"
 width="1280.000000pt" height="1014.000000pt" viewBox="0 0 1280.000000 1014.000000"
 preserveAspectRatio="xMidYMid meet">
<metadata>
Created by potrace 1.15, written by Peter Selinger 2001-2017
</metadata>
<g transform="translate(0.000000,1014.000000) scale(0.100000,-0.100000)"
fill="#8bc34a" stroke="none">
<path d="M6790 10133 c-19 -1 -84 -8 -145 -14 -237 -22 -623 -101 -923 -189
-458 -133 -607 -215 -927 -509 -182 -168 -427 -354 -795 -604 -312 -213 -408
-290 -700 -567 -212 -201 -287 -265 -416 -357 -97 -70 -205 -170 -245 -229
-43 -63 -89 -165 -110 -245 -19 -72 -23 -119 -28 -334 -3 -137 -10 -256 -14
-262 -11 -18 -25 -16 -115 12 -132 42 -489 97 -902 140 -243 25 -633 48 -684
41 -56 -9 -57 -26 -1 -41 49 -14 61 -33 69 -107 8 -69 19 -95 50 -121 14 -12
17 -20 9 -23 -25 -11 -63 -46 -58 -54 14 -23 102 -32 390 -40 464 -13 688 -46
1034 -149 334 -100 421 -144 458 -231 9 -22 18 -96 24 -200 11 -185 27 -280
63 -369 51 -125 96 -158 294 -215 129 -38 172 -53 172 -61 0 -3 -23 -33 -51
-67 -96 -120 -280 -439 -325 -565 -25 -73 -29 -109 -14 -133 17 -27 32 4 41
86 7 65 13 81 33 98 14 12 35 47 46 78 23 63 20 62 130 74 176 21 331 -2 423
-62 35 -23 38 -28 32 -57 -4 -18 -23 -67 -42 -111 -33 -74 -35 -83 -30 -160 3
-60 19 -129 60 -262 65 -214 85 -316 71 -371 -8 -35 -12 -38 -49 -43 l-40 -5
0 -50 0 -50 -38 -3 c-51 -4 -144 24 -172 52 -36 36 -39 104 -16 373 23 269 25
323 12 323 -21 0 -39 -95 -66 -343 -19 -179 -36 -251 -79 -331 -19 -36 -41
-94 -47 -128 l-13 -63 -17 55 c-27 83 -25 134 6 158 29 23 32 32 8 32 -23 -1
-55 -27 -78 -62 -67 -107 -87 90 -36 350 36 177 54 326 49 407 -3 58 -4 59
-16 31 -7 -16 -17 -63 -23 -105 -5 -42 -15 -88 -20 -103 -23 -58 -82 -41 -121
35 l-21 42 -9 -30 c-36 -120 75 -599 161 -699 21 -24 51 -74 67 -112 49 -116
89 -189 103 -189 11 0 15 24 16 115 1 86 5 126 19 157 39 93 61 40 73 -176 l8
-144 126 154 c69 85 156 195 193 246 36 50 73 93 80 96 20 8 42 -21 55 -68 11
-45 35 -262 51 -470 23 -298 43 -404 108 -560 37 -91 46 -124 50 -191 4 -71 1
-88 -23 -145 -48 -114 -73 -202 -84 -299 -16 -129 -30 -216 -47 -274 -8 -27
-12 -51 -10 -53 2 -2 38 40 81 92 42 53 86 100 97 106 15 8 18 17 13 38 -5 23
-1 31 19 44 20 14 26 28 32 77 4 38 11 60 19 60 7 0 55 -39 106 -86 114 -104
202 -164 239 -164 15 0 38 -9 51 -19 34 -26 61 -14 184 89 116 97 152 120 182
120 13 0 30 11 39 25 l17 26 24 -23 c30 -28 143 -256 180 -363 51 -149 30
-306 -42 -313 -24 -2 -37 4 -59 29 -24 26 -30 29 -37 16 -20 -35 -47 -317 -30
-317 10 0 17 21 41 128 14 61 43 103 60 86 6 -6 15 -49 20 -97 8 -79 27 -138
49 -151 13 -9 49 40 62 85 10 33 9 42 -7 65 -45 63 -54 80 -54 105 0 15 7 33
16 40 14 11 21 10 46 -4 16 -9 35 -14 40 -11 15 10 3 205 -17 284 -22 86 -57
161 -170 365 -125 226 -129 240 -122 379 6 101 26 228 39 241 3 3 66 -24 142
-60 175 -83 206 -96 206 -85 0 24 -375 221 -467 245 -75 20 -77 24 -73 135 2
69 -13 98 -64 120 -56 24 -67 43 -56 102 10 52 1 94 -28 135 -35 51 -47 104
-47 218 1 159 24 200 124 219 45 8 71 33 71 66 0 15 11 48 25 74 34 63 32 97
-15 287 -43 173 -50 258 -25 279 37 30 159 -35 180 -95 16 -49 24 -55 71 -55
53 0 78 21 94 80 23 86 6 107 -122 149 -87 29 -132 59 -136 93 -4 32 15 40 64
26 48 -13 134 4 159 32 19 21 19 21 -51 117 -9 12 -13 30 -10 40 8 25 115 94
230 149 106 50 150 62 161 44 4 -7 12 -72 16 -144 11 -171 29 -256 95 -458 30
-91 88 -298 129 -460 103 -396 131 -488 181 -588 80 -159 146 -433 165 -690
17 -221 8 -249 -79 -251 l-27 0 32 -16 c43 -21 63 -67 63 -142 0 -85 37 -440
56 -531 47 -236 122 -410 175 -410 10 0 19 -6 20 -12 0 -7 2 -60 3 -118 7
-236 123 -510 277 -655 53 -50 165 -122 175 -112 7 7 -92 93 -158 135 -50 33
-62 48 -107 133 -28 52 -67 138 -87 190 -34 84 -38 104 -38 189 -1 52 3 152 8
223 10 139 6 146 -44 107 -33 -26 -62 -25 -87 3 -41 45 -56 145 -30 197 19 38
74 70 120 70 39 0 39 0 33 -32 l-6 -32 36 34 c40 39 78 89 72 95 -2 3 -60 -7
-128 -21 -68 -14 -138 -24 -155 -22 -26 3 -30 7 -33 36 -7 74 114 136 169 86
27 -25 139 -33 157 -11 18 22 -21 47 -72 47 -47 0 -41 10 22 31 70 23 79 46
64 154 -7 47 -28 138 -47 201 -19 63 -39 144 -45 181 -35 249 -55 358 -91 508
-51 218 -57 306 -30 445 36 180 67 223 314 428 164 137 362 281 602 439 317
210 407 285 536 451 l89 114 -5 286 c-15 794 -26 1174 -35 1196 -5 14 -19 26
-32 28 -12 2 -28 14 -35 28 -15 33 -63 457 -63 562 0 68 4 88 25 123 13 23 33
77 45 119 41 153 105 278 209 408 124 156 281 263 357 244 15 -4 68 -47 118
-95 100 -96 124 -112 205 -131 72 -17 144 -8 280 35 133 41 198 44 297 14 95
-29 147 -61 232 -143 116 -112 294 -355 354 -481 49 -106 62 -355 24 -463 -8
-20 -74 -129 -148 -242 -181 -276 -412 -647 -464 -745 -88 -165 -195 -486
-224 -668 -15 -91 -9 -216 15 -308 40 -154 114 -263 356 -518 441 -468 719
-777 719 -799 0 -49 -31 -422 -41 -485 -6 -39 -19 -105 -31 -146 -11 -40 -17
-84 -14 -97 5 -17 2 -26 -9 -30 -18 -7 -30 -51 -45 -169 -6 -49 -22 -131 -36
-181 -17 -63 -27 -139 -34 -249 -6 -87 -20 -202 -31 -254 -46 -213 -79 -450
-79 -564 0 -50 -3 -60 -20 -64 -15 -4 -20 -14 -20 -39 0 -43 29 -116 44 -111
13 4 16 23 52 296 30 232 90 603 134 831 32 163 58 250 121 414 43 111 82 274
99 416 35 301 101 505 218 678 76 112 341 346 587 519 55 39 175 116 267 172
92 56 190 123 218 148 98 88 263 362 356 588 77 191 84 223 94 504 20 540 49
790 121 1023 34 114 75 174 139 205 54 26 153 38 243 29 54 -6 70 -13 101 -40
44 -41 173 -95 243 -103 51 -6 53 -5 64 23 6 16 15 83 20 149 5 66 20 192 34
280 13 88 30 212 36 275 17 156 18 638 1 708 -15 66 -58 154 -87 182 -27 26
-87 36 -504 85 -511 61 -578 77 -891 218 -322 144 -500 176 -760 137 -232 -35
-303 -22 -444 83 -137 104 -497 294 -722 382 -181 71 -495 242 -601 327 -26
21 -75 51 -108 67 -33 16 -86 52 -119 79 -71 61 -134 96 -288 156 -334 131
-835 262 -1133 296 -84 9 -255 11 -335 3z m1499 -652 c35 -12 191 -87 345
-165 319 -163 401 -193 561 -206 150 -13 241 -29 293 -51 24 -11 63 -19 87
-19 33 0 71 -15 166 -63 147 -74 306 -173 369 -228 43 -38 44 -40 26 -54 -42
-32 -217 -11 -238 28 -10 19 -11 19 -24 -12 -20 -47 -50 -39 -46 12 4 52 -11
73 -76 106 -175 88 -839 295 -1064 331 -88 14 -131 2 -136 -39 -17 -118 218
-247 463 -255 94 -3 122 -8 198 -36 89 -33 258 -127 265 -148 2 -7 -9 -17 -24
-22 -49 -19 -376 -70 -489 -76 l-111 -7 -74 37 c-120 58 -310 99 -786 171
l-231 35 -193 -56 c-464 -133 -735 -177 -951 -154 -142 14 -213 40 -313 113
-47 34 -86 64 -86 67 0 3 51 32 113 64 138 73 345 196 412 246 74 54 134 87
201 110 32 11 92 43 134 69 81 53 151 81 204 81 47 0 94 19 101 40 14 43 127
74 385 104 19 2 130 3 245 2 188 -2 217 -5 274 -25z m-2231 -687 c12 -8 22
-22 22 -30 0 -9 14 -29 30 -46 38 -38 38 -52 -4 -94 -40 -40 -52 -42 -59 -13
-5 20 -10 21 -66 15 -60 -7 -60 -7 -67 21 -10 47 -13 53 -29 59 -22 9 -45 -14
-66 -63 -10 -24 -22 -43 -26 -43 -3 0 -17 10 -30 22 -19 17 -28 20 -41 12 -27
-17 -44 -61 -49 -128 -7 -74 -17 -96 -46 -96 -34 0 -217 -86 -249 -117 -23
-21 -28 -34 -23 -53 3 -14 12 -68 20 -120 16 -105 29 -124 91 -136 48 -9 61 7
69 81 4 36 14 70 21 76 25 20 173 7 229 -22 64 -31 68 -47 15 -55 -70 -11 -75
-62 -14 -141 31 -41 120 -113 140 -113 24 0 16 20 -32 83 -57 76 -41 88 28 21
94 -92 198 -262 184 -301 -9 -23 -30 -2 -76 76 -21 36 -46 75 -55 86 -16 19
-16 18 -11 -22 4 -24 3 -43 0 -43 -3 0 -28 24 -56 53 -45 47 -50 50 -62 35
-19 -26 -31 -23 -104 23 -77 49 -160 89 -184 89 -9 0 -20 -9 -23 -20 -4 -12
-15 -20 -27 -20 -28 0 -95 -71 -131 -137 -36 -68 -43 -131 -23 -216 20 -86 21
-138 3 -131 -19 7 -95 113 -151 210 -134 231 -134 432 0 621 90 127 417 445
545 530 22 15 64 35 92 44 67 23 184 25 215 3z m-214 -550 c38 -38 -5 -85 -45
-48 -19 17 -25 45 -12 57 11 12 41 7 57 -9z m179 -91 c12 -7 8 -30 -8 -43 -12
-10 -23 -8 -58 16 -41 27 -42 28 -17 35 23 6 65 2 83 -8z m-2373 -60 c12 -32
26 -87 32 -123 5 -36 21 -87 36 -115 26 -48 27 -58 30 -225 3 -126 -1 -210
-13 -295 -28 -201 -30 -276 -9 -316 14 -26 19 -64 22 -166 5 -142 -7 -252 -37
-348 -27 -85 -54 -270 -47 -310 5 -23 16 -40 36 -51 42 -25 51 -54 60 -199 4
-71 11 -138 15 -148 20 -51 72 22 81 115 3 29 7 64 10 77 5 22 6 22 23 7 25
-22 32 -77 22 -153 -11 -75 -30 -118 -54 -118 -9 0 -45 -30 -80 -67 -103 -112
-147 -102 -147 30 0 99 -11 212 -20 212 -4 0 -13 -20 -20 -45 -16 -56 -26 -64
-35 -25 -8 36 -23 38 -97 11 -103 -37 -99 -38 -92 7 8 51 -16 167 -66 314 -47
137 -50 161 -18 156 15 -2 24 -13 30 -36 9 -35 45 -59 73 -48 9 3 22 20 28 36
10 26 16 30 49 30 28 0 41 6 52 23 49 75 137 819 95 805 -17 -6 -74 -117 -94
-183 -13 -46 -14 -34 -9 170 3 121 9 292 15 380 12 220 11 389 -4 353 -21 -53
-29 -28 -25 75 4 112 15 142 69 195 48 47 64 42 89 -25z m4932 21 c17 -37 -8
-108 -40 -112 -33 -5 -52 15 -52 53 0 38 33 85 61 85 11 0 24 -11 31 -26z
m116 -23 c8 -4 12 -19 10 -32 -2 -18 -9 -24 -28 -24 -19 0 -26 6 -28 24 -3 20
11 41 28 41 3 0 11 -4 18 -9z m-1751 -53 c4 -7 7 -26 8 -43 0 -28 3 -30 41
-33 30 -2 53 -13 82 -38 58 -49 61 -69 21 -110 -39 -40 -52 -42 -73 -12 l-16
22 -34 -33 -33 -32 -6 30 c-12 59 -110 81 -168 39 -28 -21 -32 -21 -57 -7 -47
26 -41 107 12 164 31 32 38 35 93 35 42 0 64 5 73 15 15 18 46 20 57 3z m5153
-12 c6 -16 19 -26 44 -30 19 -4 38 -10 40 -15 9 -13 -24 -51 -44 -51 -24 0
-90 65 -90 89 0 38 36 43 50 7z m-6029 -77 c16 -31 4 -53 -21 -39 -23 12 -44
56 -34 71 7 13 41 -7 55 -32z m6359 -9 c6 -12 8 -29 5 -40 -8 -25 -52 -60 -77
-60 -20 0 -18 23 8 88 15 37 47 43 64 12z m-9024 -72 c-4 -29 -7 -62 -9 -73
-1 -15 4 -20 23 -20 32 0 38 -31 15 -79 -18 -37 -87 -106 -107 -106 -11 0 -7
99 8 213 4 28 3 47 -3 47 -13 0 -159 -258 -217 -381 -90 -193 -163 -419 -173
-531 -13 -152 39 -34 77 172 24 130 38 180 50 180 12 0 19 -75 25 -295 8 -259
21 -381 51 -474 32 -101 32 -181 0 -181 -55 0 -200 325 -226 505 -14 99 -12
296 4 386 26 144 98 274 277 500 97 123 164 189 192 189 18 0 19 -4 13 -52z
m8578 17 c-1 -11 -4 -41 -9 -67 l-7 -48 30 0 c17 0 33 -6 35 -12 3 -7 6 6 6
29 1 53 15 88 36 97 14 5 16 2 10 -11 -16 -37 -18 -75 -4 -84 25 -16 45 -10
93 27 26 20 49 34 52 32 9 -10 -133 -318 -147 -318 -4 0 -7 22 -7 48 1 27 -2
54 -6 60 -12 19 -47 14 -86 -13 -44 -30 -63 -26 -84 20 -30 62 -18 156 29 227
28 42 61 49 59 13z m-5847 -67 c36 -35 42 -58 16 -58 -25 0 -63 40 -63 67 0
31 8 29 47 -9z m-372 -118 c59 -37 96 -85 101 -130 2 -25 17 -63 34 -90 35
-55 36 -60 12 -60 -22 0 -100 79 -136 138 -15 23 -30 59 -34 79 -9 46 -35 64
-58 42 -14 -15 -14 -20 0 -53 9 -21 45 -80 81 -131 37 -54 65 -104 65 -118 0
-16 -13 -36 -35 -56 -20 -17 -38 -31 -40 -31 -3 0 -2 12 1 28 5 24 1 29 -39
49 -52 25 -90 70 -112 132 -22 63 -20 73 11 65 24 -6 26 -5 19 17 -4 13 -16
41 -26 61 -22 43 -24 74 -6 82 23 10 132 -6 162 -24z m6735 -135 c38 -20 53
-48 52 -103 -2 -83 -57 -232 -86 -232 -19 0 -26 22 -26 78 0 76 -15 94 -89
107 -64 12 -81 24 -81 60 0 79 143 135 230 90z m-292 -27 c12 -45 1 -73 -29
-73 -19 0 -25 6 -27 28 -3 29 21 77 38 77 5 0 13 -15 18 -32z m120 -356 c4
-26 -35 -45 -82 -40 -42 4 -38 19 15 46 50 25 63 24 67 -6z m-6876 -36 c6 -54
62 -177 94 -207 20 -19 30 -21 74 -15 45 6 53 4 74 -17 84 -84 56 -362 -79
-788 -70 -219 -122 -430 -140 -569 -18 -132 -35 -190 -58 -190 -20 0 -47 33
-119 145 -36 55 -74 108 -84 117 -27 24 -80 44 -137 52 -27 4 -59 17 -75 31
-27 23 -27 24 -26 147 2 203 37 426 77 503 21 37 22 52 19 220 l-2 179 32 40
c35 44 57 96 58 141 1 47 43 126 90 168 48 44 132 87 171 87 24 0 27 -4 31
-44z m128 -8 c0 -21 -45 -78 -62 -78 -14 0 -9 75 8 98 12 18 19 20 35 12 10
-6 19 -20 19 -32z m669 -97 c47 -143 -61 -459 -120 -349 -7 14 -10 54 -7 114
6 101 23 144 58 144 25 0 25 7 0 65 l-20 47 26 -6 c21 -6 27 -3 31 14 7 26 16
17 32 -29z m-209 -188 c0 -120 -41 -268 -78 -281 -11 -3 -12 6 -7 39 6 41 4
46 -29 78 -20 19 -36 43 -36 54 0 31 60 164 87 193 l26 28 18 -23 c14 -17 19
-40 19 -88z m1478 -502 c49 -65 42 -76 -52 -78 -43 -1 -99 -9 -124 -18 -60
-20 -85 -19 -113 4 -20 16 -22 22 -12 44 21 45 145 98 223 94 39 -2 48 -7 78
-46z m-392 -76 c25 -60 13 -150 -26 -197 -15 -18 -22 -20 -28 -10 -7 10 -11
10 -21 -1 -45 -55 -287 7 -366 94 -19 22 -35 44 -35 49 0 20 30 9 61 -21 28
-27 37 -30 70 -25 25 4 52 1 75 -9 53 -22 64 -20 134 30 35 25 70 45 77 45 9
0 13 14 13 40 0 51 25 54 46 5z m2632 3 c-6 -17 -78 -58 -102 -58 -16 0 -17 2
-5 17 13 15 84 52 102 53 5 0 7 -6 5 -12z m-156 -158 c22 -14 44 -19 64 -16
26 4 33 0 43 -20 9 -21 14 -23 30 -14 29 15 30 14 28 -47 -2 -47 1 -58 16 -61
14 -3 17 4 17 35 0 54 23 83 66 83 41 0 42 -6 9 -50 -14 -19 -25 -35 -25 -35
0 -1 24 0 53 3 41 3 57 0 75 -14 l23 -19 -41 -54 c-38 -50 -52 -91 -31 -91 5
0 13 9 16 20 4 12 15 20 28 20 27 0 67 -26 67 -44 0 -27 -114 -116 -149 -116
-41 0 -106 113 -98 171 l5 38 -52 3 -51 3 -5 44 c-4 37 -9 46 -30 51 -40 11
-115 -13 -166 -53 -26 -21 -48 -36 -50 -34 -1 1 2 21 9 44 9 34 8 45 -6 67
-22 33 -13 52 51 118 l46 48 12 -30 c7 -16 28 -39 46 -50z m-2962 -165 c258
-41 332 -95 456 -334 47 -91 92 -147 146 -183 18 -12 38 -49 68 -125 47 -119
73 -163 97 -163 26 0 77 -37 112 -80 l33 -42 -45 7 c-40 6 -47 4 -57 -14 -9
-18 -19 -21 -52 -19 -35 2 -45 -3 -69 -30 -28 -32 -37 -66 -21 -76 5 -3 47 -8
93 -12 l84 -7 -58 -13 c-67 -16 -105 -34 -131 -63 -29 -32 -9 -47 46 -33 81
21 78 -29 -4 -60 -105 -39 -328 -65 -328 -38 0 6 12 10 28 10 15 0 44 5 65 11
36 10 37 12 37 54 0 49 2 47 -84 59 -60 8 -86 30 -86 74 0 20 9 51 20 67 24
36 26 75 5 75 -8 0 -33 -13 -55 -29 -95 -69 -432 -78 -569 -16 -29 14 -59 25
-65 25 -6 0 -28 -22 -48 -49 -33 -44 -41 -49 -74 -48 -29 1 -42 -5 -61 -28
-23 -26 -25 -35 -21 -104 6 -97 47 -187 118 -259 49 -50 110 -91 110 -75 0 5
5 0 11 -10 13 -23 14 -291 0 -314 -7 -14 -11 -9 -21 27 -8 30 -27 60 -56 89
l-44 44 -23 -21 c-13 -12 -25 -22 -28 -22 -3 0 -1 34 4 75 12 93 7 107 -30 96
-40 -11 -52 -4 -58 37 -3 20 -8 51 -11 69 -3 21 -12 34 -25 38 -11 4 -32 31
-47 61 -30 62 -45 67 -117 32 -36 -18 -48 -19 -58 -10 -16 17 -23 452 -8 563
12 88 40 153 53 122 3 -10 7 -34 7 -53 1 -21 12 -51 27 -74 19 -28 30 -63 39
-123 13 -90 20 -106 36 -83 12 19 5 81 -26 218 -13 59 -24 127 -24 152 0 25
-6 63 -14 85 -21 60 -29 118 -17 135 9 13 12 13 25 -4 8 -10 24 -49 36 -85 28
-86 65 -163 90 -190 13 -14 32 -21 54 -21 47 0 46 24 -4 85 -46 55 -80 139
-88 212 -6 57 -15 69 -52 75 -35 5 -40 34 -21 116 21 88 40 112 89 112 61 0
68 -11 48 -67 -21 -60 -21 -73 1 -89 13 -9 17 -27 18 -71 0 -47 7 -71 37 -128
50 -94 125 -185 184 -222 99 -63 99 -48 0 49 -92 90 -136 156 -137 201 0 10
-6 20 -14 23 -30 12 -46 113 -30 193 5 24 12 31 30 31 13 0 28 9 34 19 14 27
13 28 -12 27 -16 -1 -24 5 -26 21 -7 45 37 85 113 104 54 13 268 9 365 -6z
m-3603 -39 c10 -13 27 -43 38 -67 10 -24 20 -45 21 -47 0 -1 33 30 72 70 l70
72 12 -43 c26 -96 39 -229 24 -244 -4 -3 -26 5 -49 18 -51 30 -65 31 -133 5
-100 -38 -115 -23 -116 115 -1 139 18 177 61 121z m7424 -220 c56 -21 102 -68
119 -121 18 -58 48 -115 84 -160 42 -51 86 -117 86 -127 0 -5 -8 -8 -19 -8
-22 0 -71 44 -71 64 0 12 -7 14 -27 10 -20 -4 -39 2 -65 20 -21 14 -38 24 -38
22 0 -2 15 -27 34 -55 35 -51 62 -140 54 -176 -3 -15 -11 -19 -31 -17 -33 3
-34 -11 -7 -56 11 -18 20 -41 20 -51 0 -17 -109 -135 -117 -127 -2 1 4 19 12
39 33 79 11 300 -37 377 -31 49 -34 22 -13 -96 21 -115 16 -203 -15 -263 -12
-24 -48 -82 -81 -129 -86 -124 -78 -136 39 -67 113 67 147 54 67 -25 -46 -45
-57 -70 -30 -70 19 0 20 -34 1 -50 -26 -21 -60 -8 -66 25 -5 29 -7 30 -65 33
-45 2 -64 8 -79 24 -16 17 -27 20 -70 15 -57 -7 -96 -40 -96 -82 0 -14 -8 -29
-19 -35 -34 -18 -113 -11 -168 14 -61 29 -138 105 -154 153 -18 54 -110 98
-202 94 -32 -1 -38 2 -35 17 4 22 72 40 156 41 66 1 74 9 52 52 -13 23 -45 24
-95 3 -20 -8 -62 -19 -93 -25 -96 -16 -102 -19 -112 -44 -8 -21 -16 -25 -48
-25 -21 0 -46 6 -56 13 -17 12 -17 16 -3 43 9 17 23 36 31 43 27 22 18 29 -44
36 -33 4 -60 9 -60 12 0 2 14 22 32 44 39 49 90 82 112 73 10 -4 35 -42 57
-85 21 -44 43 -79 47 -79 4 0 49 34 101 75 99 79 179 131 252 165 58 26 69 25
69 -6 0 -61 122 -234 191 -269 46 -24 112 -19 178 14 90 46 115 81 129 182 13
96 2 176 -26 197 -13 11 -51 13 -179 7 -90 -3 -163 -4 -163 0 0 12 126 65 179
75 30 6 57 12 59 15 3 3 -3 14 -13 25 -18 20 -55 34 -117 45 -44 7 -46 13 -18
48 37 47 16 77 -55 77 -37 0 -95 24 -95 39 0 15 24 29 60 34 19 3 121 4 225 2
149 -2 200 -6 236 -19z m1132 -173 c-25 -47 -47 -56 -37 -16 3 15 16 48 27 73
l21 45 4 -33 c2 -20 -4 -48 -15 -69z m-6596 -149 c20 -13 46 -19 87 -19 62 0
70 -5 81 -57 3 -18 20 -37 45 -53 22 -14 40 -30 40 -35 0 -17 -37 -30 -116
-41 -94 -13 -140 -33 -219 -97 -33 -27 -68 -52 -77 -55 -31 -11 -28 11 7 53
33 39 43 69 29 83 -13 12 -60 -23 -101 -75 -46 -58 -103 -100 -103 -75 0 8 28
47 63 88 73 86 117 148 117 166 0 30 -35 8 -115 -74 -47 -48 -85 -85 -85 -81
0 3 18 36 40 73 23 36 45 76 49 88 25 66 54 116 74 126 34 17 151 7 184 -15z
m6534 -4 c21 -17 22 -21 9 -30 -21 -14 -36 -12 -50 5 -13 15 -7 45 9 45 5 0
19 -9 32 -20z m-44 -102 c24 -23 31 -58 11 -58 -20 0 -48 32 -48 57 0 29 7 29
37 1z m-708 -51 c30 -12 56 -27 58 -34 7 -19 -58 -54 -92 -51 -34 3 -75 55
-75 96 0 21 3 23 28 17 15 -3 51 -16 81 -28z m-650 -3 c28 -20 56 -83 43 -96
-14 -14 -82 2 -103 23 -33 33 -19 89 21 89 8 0 26 -7 39 -16z m1317 -59 c-4
-12 -13 -15 -31 -11 -31 8 -31 3 -3 -35 12 -16 23 -47 25 -67 1 -20 5 -55 8
-78 6 -37 4 -43 -20 -62 -21 -17 -32 -19 -46 -11 -56 30 -72 161 -29 237 30
53 68 77 89 57 7 -7 11 -21 7 -30z m-496 -70 c7 -14 10 -37 6 -55 -7 -38 -68
-180 -77 -180 -7 0 -19 88 -19 146 0 33 4 43 20 47 14 4 20 14 20 34 0 16 3
32 6 36 10 10 31 -3 44 -28z m-163 -10 c-4 -8 -23 -37 -43 -64 -29 -39 -41
-48 -51 -39 -30 25 -5 66 62 101 37 20 38 20 32 2z m498 -163 c28 -20 93 -152
75 -152 -11 0 -84 106 -94 138 -7 22 0 28 19 14z m-1830 -92 c0 -22 -5 -25
-37 -28 -32 -3 -38 0 -38 17 0 23 26 42 55 38 14 -1 20 -9 20 -27z m1818 -39
c30 -60 35 -112 12 -131 -35 -29 -111 122 -85 170 18 33 43 20 73 -39z m-1670
36 c42 -18 66 -45 48 -56 -31 -20 -151 24 -151 55 0 18 60 19 103 1z m-103
-53 c20 -23 44 -33 102 -44 52 -10 98 -41 98 -67 0 -7 -11 -20 -25 -29 -21
-14 -25 -22 -20 -45 8 -34 -1 -36 -30 -9 -23 21 -85 35 -208 46 -83 7 -118 31
-119 82 -1 45 15 53 89 46 55 -6 63 -5 75 15 15 25 21 26 38 5z m1692 -82 c20
-17 15 -32 -11 -32 -24 0 -45 26 -37 46 6 16 17 13 48 -14z m-333 -18 c21 -15
23 -22 17 -66 -12 -89 -67 -208 -97 -208 -6 0 -8 30 -7 69 3 62 0 72 -21 92
-19 18 -22 28 -17 58 10 63 73 91 125 55z m-1581 -48 c56 -35 102 -91 95 -116
-5 -19 -3 -20 20 -9 21 9 30 9 41 0 46 -38 19 -91 -46 -91 -66 0 -79 13 -77
75 2 61 -5 73 -68 116 -24 17 -43 34 -43 39 0 18 40 10 78 -14z m1027 11 c10
-8 15 -19 11 -25 -9 -15 -70 -26 -102 -18 -21 6 -24 9 -14 21 7 8 27 19 44 24
42 13 40 13 61 -2z m883 -58 c3 -27 -20 -55 -38 -44 -11 7 -14 58 -3 69 14 14
38 0 41 -25z m-700 -56 c-5 -28 -85 -63 -141 -63 -61 0 -55 13 27 51 71 34
119 39 114 12z m-7487 -199 c13 -70 -16 -224 -42 -224 -14 0 -22 71 -17 159 8
135 40 170 59 65z m475 -565 c7 -13 -34 -101 -84 -178 l-42 -64 0 77 c0 87 15
133 54 163 25 20 60 21 72 2z m872 -321 c7 -7 36 -15 64 -18 48 -5 53 -8 72
-45 19 -36 21 -54 19 -194 -2 -135 0 -157 15 -174 14 -15 17 -38 17 -116 0
-108 -9 -151 -30 -151 -19 0 -54 51 -61 90 -4 20 -20 40 -43 57 -44 33 -61 52
-61 71 0 10 8 13 25 10 33 -7 32 3 -10 78 -47 83 -48 80 24 59 22 -7 23 -5 18
21 -3 16 -21 74 -41 129 -22 61 -36 118 -36 148 0 48 7 56 28 35z m-378 -1187
c-11 -23 -25 -41 -30 -41 -13 0 -4 40 24 105 l21 50 3 -37 c2 -23 -5 -52 -18
-77z"/>
<path d="M3596 7448 c-9 -36 -7 -256 3 -262 16 -10 35 157 26 230 -7 57 -19
69 -29 32z"/>
<path d="M2980 6755 c0 -17 36 -75 47 -75 19 0 16 18 -8 51 -18 25 -39 38 -39
24z"/>
<path d="M3050 6557 c0 -24 35 -65 46 -55 8 9 -23 78 -35 78 -6 0 -11 -11 -11
-23z"/>
<path d="M12400 7536 c0 -18 25 -66 37 -70 37 -15 44 20 10 52 -20 19 -47 29
-47 18z"/>
<path d="M6560 5890 c-77 -7 -115 -25 -144 -63 -19 -26 -21 -40 -18 -164 2
-124 1 -134 -15 -131 -10 2 -33 32 -53 68 -23 45 -35 59 -38 47 -6 -32 6 -63
44 -108 29 -34 35 -49 30 -72 l-6 -29 36 23 c72 44 158 19 152 -46 l-3 -30 98
-5 c87 -4 101 -8 117 -27 23 -29 29 -21 23 27 -5 36 -3 41 28 60 25 15 44 20
74 16 l39 -5 -37 35 c-41 39 -48 59 -16 49 17 -6 32 4 72 41 27 27 48 42 45
34 -9 -25 10 -60 32 -60 44 0 7 120 -63 206 -50 60 -142 122 -190 128 -87 11
-144 12 -207 6z m235 -210 c3 -10 -1 -33 -10 -51 -53 -102 -145 -107 -194 -12
-27 54 6 73 49 28 13 -14 29 -25 35 -25 6 0 28 18 49 40 42 44 62 50 71 20z"/>
<path d="M6996 5386 c-19 -40 -20 -46 -6 -46 13 0 51 61 44 72 -10 16 -22 8
-38 -26z"/>
<path d="M6866 5381 c-18 -20 -21 -37 -6 -46 15 -9 40 14 40 36 0 26 -15 31
-34 10z"/>
<path d="M6877 5270 c-101 -18 -76 -32 72 -41 119 -7 161 -18 161 -44 0 -21
17 -18 30 4 25 48 -31 83 -140 87 -41 2 -97 -1 -123 -6z"/>
<path d="M7250 5170 c0 -19 27 -64 54 -89 24 -23 26 -23 26 -5 0 29 -43 98
-63 102 -9 2 -17 -2 -17 -8z"/>
<path d="M9715 5058 c10 -36 58 -111 74 -116 19 -6 7 40 -25 96 -27 45 -60 59
-49 20z"/>
<path d="M9759 4761 c19 -35 99 -65 181 -68 l75 -3 -72 19 c-40 10 -90 30
-113 44 -49 33 -86 37 -71 8z"/>
<path d="M11361 4993 c12 -32 28 -53 40 -53 16 0 10 26 -12 54 -27 34 -41 33
-28 -1z"/>
<path d="M4375 3357 c-13 -10 -16 -21 -11 -40 12 -48 56 -22 56 32 0 24 -18
27 -45 8z"/>
<path d="M50 6868 c-60 -17 -58 -28 4 -28 57 0 96 12 96 30 0 12 -54 11 -100
-2z"/>
<path d="M740 6651 c-12 -9 -12 -11 2 -16 23 -9 63 -2 61 10 -3 14 -45 17 -63
6z"/>
<path d="M8650 3182 c0 -21 27 -62 42 -62 12 0 2 48 -14 67 -15 18 -28 16 -28
-5z"/>
<path d="M8206 3154 c-8 -22 -7 -47 3 -63 8 -12 12 -12 25 -2 21 17 21 67 0
75 -21 8 -21 8 -28 -10z"/>
<path d="M8277 3053 c-9 -8 -9 -70 0 -102 6 -22 6 -22 19 9 12 28 18 32 44 28
38 -6 38 1 -3 40 -33 32 -48 38 -60 25z"/>
<path d="M7695 2989 c-9 -13 21 -46 58 -66 39 -20 43 -11 11 26 -33 39 -60 55
-69 40z"/>
<path d="M8071 2892 c-13 -25 -1 -39 33 -38 24 1 33 -6 50 -39 27 -50 66 -67
96 -40 31 28 26 55 -10 55 -18 0 -42 11 -62 29 -61 53 -91 62 -107 33z"/>
<path d="M8573 2884 c-19 -19 -23 -28 -14 -37 17 -17 65 12 69 41 5 30 -22 29
-55 -4z"/>
<path d="M5855 2808 c9 -75 34 -158 46 -158 7 0 9 18 4 53 -9 74 -34 157 -46
157 -7 0 -9 -18 -4 -52z"/>
<path d="M9612 2829 c6 -17 88 -63 88 -50 0 20 -48 61 -70 61 -12 0 -20 -5
-18 -11z"/>
<path d="M7381 2779 c-29 -5 -69 -16 -87 -25 -123 -58 -261 -340 -241 -489 4
-24 18 -72 31 -107 14 -34 37 -106 51 -158 31 -115 115 -292 178 -377 32 -43
62 -70 95 -87 26 -13 86 -55 133 -91 90 -72 142 -100 202 -110 22 -4 50 -18
68 -36 35 -34 64 -35 63 -1 -1 28 2 28 44 -4 48 -38 114 -60 212 -74 47 -7
105 -21 130 -33 87 -39 270 -4 443 83 53 28 106 50 117 50 10 0 32 -16 47 -35
37 -47 46 -44 22 6 -26 52 -22 93 8 97 16 2 28 -6 45 -32 27 -42 38 -44 64
-13 48 54 49 58 17 51 -32 -6 -63 15 -63 43 0 8 17 34 38 58 94 106 158 320
181 598 22 259 13 316 -67 438 -85 129 -179 200 -315 236 -96 26 -336 22 -442
-7 -151 -42 -129 -42 -340 6 -84 18 -548 29 -634 13z m-148 -353 c-3 -36 -33
-116 -44 -116 -13 0 -11 107 2 131 16 30 44 20 42 -15z m308 18 c8 -9 23 -35
34 -58 13 -27 28 -42 45 -46 18 -4 32 -19 48 -53 12 -26 26 -47 31 -47 4 0 13
12 20 26 28 61 67 -1 56 -91 -8 -65 -18 -75 -76 -75 -60 0 -96 28 -121 96
l-18 49 5 -64 c7 -85 21 -106 87 -121 67 -16 96 -31 130 -67 36 -37 89 -153
95 -206 l4 -42 -20 23 c-12 13 -26 42 -33 64 -6 22 -18 42 -25 45 -8 3 -38
-18 -68 -46 -29 -28 -59 -51 -65 -51 -16 0 -118 99 -126 122 -4 12 1 28 14 41
10 12 22 30 25 40 11 29 -20 20 -80 -23 -31 -22 -64 -40 -74 -40 -27 0 -49 28
-49 62 0 25 -2 28 -15 18 -7 -6 -28 -37 -46 -68 l-32 -57 -13 35 c-18 50 -17
126 3 163 11 22 16 53 15 97 -2 73 10 120 37 144 17 16 20 15 45 -15 15 -17
28 -30 30 -28 2 2 7 29 12 59 l9 55 43 -3 42 -3 -6 40 c-5 33 -4 41 8 41 9 0
22 -7 29 -16z m819 -217 c0 -47 -13 -135 -29 -194 -22 -80 -91 -149 -91 -91 0
13 -4 29 -9 36 -10 16 -45 -25 -129 -149 -29 -42 -63 -86 -76 -98 l-24 -23
-17 25 c-8 14 -21 65 -27 115 -10 78 -9 101 7 163 16 66 16 73 1 81 -39 22 1
118 49 118 26 0 55 -33 55 -65 1 -16 4 -14 17 10 31 60 110 121 131 101 3 -4
11 -42 17 -84 l11 -77 23 50 c38 83 72 136 82 130 5 -4 9 -25 9 -48z m168 36
c5 -10 12 -54 15 -97 6 -86 24 -120 51 -97 8 7 18 26 21 42 11 48 22 25 28
-58 5 -82 22 -133 43 -133 7 0 22 12 34 28 l21 27 -6 -63 c-6 -59 -5 -64 15
-69 22 -6 33 -36 28 -79 -2 -23 -9 -30 -31 -32 -23 -3 -33 -12 -48 -45 -25
-57 -24 -67 9 -67 34 0 57 -23 67 -67 8 -41 1 -41 -33 -2 l-26 32 -32 -37 -32
-37 -6 34 c-7 36 -33 66 -81 90 -67 34 -97 94 -119 240 -19 121 -38 339 -31
360 3 10 7 24 10 32 7 23 91 21 103 -2z m-638 -11 c0 -4 -10 -13 -21 -21 -20
-12 -21 -19 -16 -92 4 -51 3 -79 -4 -79 -17 0 -39 67 -39 119 0 40 4 53 22 65
23 17 58 21 58 8z m1080 -144 c0 -29 -7 -91 -15 -137 -15 -81 -14 -86 5 -123
23 -44 25 -75 9 -132 -20 -73 -90 -117 -138 -87 -23 15 -5 39 50 66 49 25 51
28 44 58 -13 63 -17 259 -5 325 13 75 16 82 36 82 10 0 14 -13 14 -52z m-566
-277 c10 -16 -6 -42 -31 -52 -14 -5 -31 -26 -43 -51 l-19 -43 0 35 c-1 36 22
80 55 105 22 17 31 18 38 6z m-950 -37 c10 -4 16 -18 16 -36 0 -22 14 -44 55
-87 51 -54 67 -81 47 -81 -17 0 -91 72 -121 117 -43 65 -42 104 3 87z m396
-140 c0 -19 -4 -34 -10 -34 -5 0 -10 18 -10 41 0 24 4 38 10 34 6 -3 10 -22
10 -41z m-128 -43 c51 -60 63 -135 18 -111 -11 6 -27 25 -36 42 -45 87 -33
131 18 69z m508 -133 c0 -27 -4 -48 -10 -48 -6 0 -10 27 -10 63 0 44 3 58 10
47 5 -8 10 -36 10 -62z m480 -32 c0 -16 -38 -66 -50 -66 -11 0 5 47 22 67 14
17 28 17 28 -1z m-158 -81 c-6 -14 -18 -25 -27 -25 -21 0 -19 47 3 59 25 14
38 -3 24 -34z"/>
<path d="M8007 2014 c-13 -13 -7 -52 8 -58 27 -10 46 5 43 33 -3 26 -35 41
-51 25z"/>
<path d="M8480 1901 c-13 -25 11 -51 46 -51 35 0 43 29 15 52 -30 23 -48 23
-61 -1z"/>
<path d="M8626 1841 c-8 -12 13 -49 32 -56 17 -6 28 24 15 44 -12 19 -39 26
-47 12z"/>
<path d="M5570 2625 c0 -13 107 -55 138 -55 42 0 34 16 -22 41 -38 17 -116 26
-116 14z"/>
<path d="M5852 1833 c-5 -10 -6 -27 -2 -37 6 -19 7 -19 29 3 12 12 20 28 18
34 -6 20 -35 20 -45 0z"/>
<path d="M3768 1789 c-10 -5 -51 -60 -92 -122 -41 -61 -125 -173 -186 -247
-102 -123 -170 -221 -170 -244 0 -20 59 49 235 274 102 129 201 254 221 277
45 52 40 90 -8 62z"/>
<path d="M9122 1539 c-9 -14 -19 -18 -32 -14 -13 4 -20 2 -20 -7 0 -25 30 -57
58 -60 19 -2 28 -9 30 -25 2 -13 8 -23 14 -23 15 0 2 73 -20 116 -17 33 -18
33 -30 13z"/>
<path d="M7193 1363 c-25 -10 -12 -32 25 -42 47 -14 74 -14 109 0 l28 11 -24
19 c-22 18 -105 26 -138 12z"/>
<path d="M4022 1308 c-20 -20 6 -38 54 -38 51 0 63 13 32 34 -27 19 -69 21
-86 4z"/>
<path d="M7531 1252 c-7 -13 -5 -28 6 -50 19 -38 30 -41 39 -7 14 56 -21 101
-45 57z"/>
<path d="M4310 1170 c0 -49 4 -90 9 -90 5 0 17 12 27 27 l18 28 8 -33 c5 -18
13 -30 18 -27 16 10 11 39 -14 75 -12 19 -29 52 -37 73 -7 20 -17 37 -21 37
-4 0 -8 -40 -8 -90z"/>
<path d="M4890 1215 c0 -35 13 -47 23 -21 7 18 -3 56 -14 56 -5 0 -9 -16 -9
-35z"/>
<path d="M4497 1157 c-26 -19 -47 -94 -57 -199 -25 -262 -110 -447 -234 -510
-37 -19 -89 -21 -146 -7 -16 4 -17 -10 -9 -138 2 -42 -2 -59 -24 -91 -36 -56
-109 -112 -170 -133 -29 -10 -56 -24 -61 -32 -12 -19 9 -47 36 -47 66 0 196
117 251 226 48 95 70 113 147 122 55 6 64 10 65 29 4 55 150 243 188 243 49 0
23 -76 -59 -172 -30 -35 -54 -66 -54 -70 0 -20 27 -3 87 55 159 152 369 462
348 515 -5 13 -11 8 -25 -22 -44 -89 -185 -239 -237 -252 -15 -4 -39 0 -59 9
-31 15 -34 21 -34 59 0 24 16 99 35 168 38 134 54 243 38 253 -6 4 -17 1 -26
-6z"/>
<path d="M7702 1158 c-14 -14 -16 -58 -3 -58 16 0 42 32 39 48 -4 20 -21 25
-36 10z"/>
<path d="M8854 1146 c-8 -20 13 -46 37 -46 26 0 31 15 11 32 -31 27 -42 30
-48 14z"/>
<path d="M7930 1096 c0 -19 8 -43 18 -55 18 -23 72 -33 79 -15 4 12 -73 104
-88 104 -5 0 -9 -15 -9 -34z"/>
<path d="M3262 1052 c-38 -71 -48 -128 -32 -176 14 -44 39 -61 100 -70 52 -8
70 -21 70 -49 0 -12 26 -45 63 -81 81 -78 100 -126 127 -328 24 -177 48 -295
60 -303 39 -24 85 68 146 289 18 66 43 96 79 96 44 0 53 30 64 235 13 234 14
302 2 290 -20 -22 -44 -114 -77 -303 -4 -18 -10 -22 -37 -20 l-32 3 -3 -65
c-2 -48 -8 -70 -23 -86 -20 -22 -26 -48 -48 -233 -14 -113 -54 -173 -65 -98
-45 291 -56 517 -31 601 8 27 13 51 11 53 -2 2 -18 -14 -36 -37 -17 -22 -37
-40 -44 -40 -19 0 -42 30 -57 75 -19 57 -33 65 -115 65 -40 0 -79 3 -88 6 -19
7 -21 40 -4 50 9 6 5 10 -12 14 -36 8 -36 35 -1 76 20 22 31 45 31 64 0 45
-14 37 -48 -28z"/>
<path d="M8320 1080 c0 -5 18 -10 40 -10 22 0 40 5 40 10 0 6 -18 10 -40 10
-22 0 -40 -4 -40 -10z"/>
<path d="M3706 989 c-20 -39 -36 -73 -36 -75 0 -25 76 81 86 119 12 51 -14 27
-50 -44z"/>
<path d="M8520 1047 c0 -13 31 -47 42 -47 13 0 18 33 7 46 -15 18 -49 18 -49
1z"/>
<path d="M8379 1006 c-9 -20 -9 -32 0 -52 22 -49 74 -10 55 43 -13 37 -41 42
-55 9z"/>
<path d="M8147 953 c-4 -3 -7 -15 -7 -27 0 -29 31 -136 40 -136 11 0 19 120 9
146 -8 23 -29 31 -42 17z"/>
<path d="M9417 912 c-5 -7 -10 -73 -8 -100 1 -8 10 -2 24 12 25 30 28 28 81
-38 47 -57 59 -47 20 16 -61 97 -102 136 -117 110z"/>
<path d="M3316 719 c-9 -76 -28 -125 -64 -162 -23 -24 -33 -28 -79 -26 -29 1
-56 0 -59 -4 -11 -10 7 -47 31 -63 21 -14 26 -14 54 0 37 19 149 151 158 185
6 25 -12 109 -26 124 -5 5 -11 -20 -15 -54z"/>
<path d="M9448 749 c-20 -11 -24 -44 -6 -55 6 -4 19 3 30 16 28 35 12 61 -24
39z"/>
<path d="M7642 728 c25 -38 65 -61 125 -73 31 -6 61 -19 67 -28 26 -41 -93
-106 -252 -139 -109 -22 -157 -45 -157 -74 0 -28 45 -30 97 -3 30 16 59 22 97
21 39 -1 72 7 124 29 46 19 80 28 95 24 33 -8 116 -88 168 -161 55 -76 107
-181 100 -200 -4 -9 -21 -14 -50 -14 -54 0 -65 -12 -29 -31 60 -32 737 -8 875
31 42 12 87 45 76 56 -5 4 -61 0 -125 -9 -265 -38 -517 -49 -595 -25 -63 19
-113 72 -163 175 -46 96 -78 135 -101 126 -11 -4 -14 5 -14 35 0 35 -4 43 -35
62 -23 14 -35 29 -35 44 0 12 -10 32 -22 43 -21 19 -239 133 -254 133 -4 0 0
-10 8 -22z"/>
<path d="M3165 634 c-21 -50 -19 -52 15 -19 32 31 39 55 15 55 -8 0 -22 -16
-30 -36z"/>
<path d="M9504 618 c-34 -67 -55 -90 -70 -77 -12 9 -14 4 -14 -33 0 -37 -6
-50 -41 -88 -49 -55 -149 -200 -149 -217 0 -17 15 -16 48 1 76 40 169 184 221
342 33 99 35 131 5 72z"/>
<path d="M6903 518 c-32 -35 -55 -86 -42 -93 15 -10 47 22 59 61 16 47 9 60
-17 32z"/>
<path d="M6700 487 c0 -22 23 -37 56 -37 44 0 51 16 15 35 -37 18 -71 20 -71
2z"/>
<path d="M6967 429 c-22 -13 -22 -42 1 -62 27 -25 32 -21 32 22 0 45 -8 54
-33 40z"/>
<path d="M3901 367 c-23 -28 -80 -242 -67 -254 4 -4 70 167 84 219 11 40 2 57
-17 35z"/>
<path d="M7264 349 c-17 -5 -37 -15 -43 -23 -19 -23 17 -36 122 -47 133 -13
179 -25 297 -79 125 -57 150 -65 150 -51 0 30 -217 139 -356 179 -93 28 -133
33 -170 21z"/>
</g>
</svg>
